<svg width="58" height="58" viewBox="0 0 58 58" fill="none" xmlns="http://www.w3.org/2000/svg">
<rect opacity="0.1" width="58" height="58" rx="29" fill="#F05C5B"/>
<path d="M39.3856 32.9068C36.6389 35.6401 32.7056 36.4801 29.2522 35.4001L22.9722 41.6668C22.5189 42.1334 21.6256 42.4134 20.9856 42.3201L18.0789 41.9201C17.1189 41.7868 16.2256 40.8801 16.0789 39.9201L15.6789 37.0134C15.5856 36.3734 15.8922 35.4801 16.3322 35.0268L22.5989 28.7601C21.5322 25.2934 22.3589 21.3601 25.1056 18.6268C29.0389 14.6934 35.4256 14.6934 39.3722 18.6268C43.3189 22.5601 43.3189 28.9734 39.3856 32.9068Z" stroke="#F05C5B" stroke-width="2" stroke-miterlimit="10" stroke-linecap="round" stroke-linejoin="round"/>
<path d="M22.1875 36.3199L25.2542 39.3866" stroke="#F05C5B" stroke-width="2" stroke-miterlimit="10" stroke-linecap="round" stroke-linejoin="round"/>
<path d="M32.334 27.6667C33.4386 27.6667 34.334 26.7713 34.334 25.6667C34.334 24.5621 33.4386 23.6667 32.334 23.6667C31.2294 23.6667 30.334 24.5621 30.334 25.6667C30.334 26.7713 31.2294 27.6667 32.334 27.6667Z" stroke="#F05C5B" stroke-width="2" stroke-linecap="round" stroke-linejoin="round"/>
</svg>
