<?xml version="1.0" encoding="utf-8"?>
<!-- Generator: Adobe Illustrator 25.2.0, SVG Export Plug-In . SVG Version: 6.00 Build 0)  -->
<svg version="1.1" id="Layer_1" xmlns="http://www.w3.org/2000/svg" xmlns:xlink="http://www.w3.org/1999/xlink" x="0px" y="0px"
	 viewBox="0 0 38 38" style="enable-background:new 0 0 38 38;" xml:space="preserve">
<style type="text/css">
	.st0{opacity:0.1;fill:#8A74B3;enable-background:new    ;}
	.st1{fill:#8A74B3;}
</style>
<circle class="st0" cx="19" cy="19" r="19"/>
<g>
	<path class="st1" d="M22.7,29h-7.4c-2.8,0-4.4-1.6-4.4-4.4v-9.1c0-2.9,1.5-4.4,4.4-4.4c0.2,0,0.4,0.1,0.5,0.2
		c0.1,0.1,0.2,0.3,0.2,0.5c0,0.4,0.1,0.7,0.4,1c0.3,0.3,0.6,0.4,1,0.4h3.3c0.8,0,1.4-0.6,1.4-1.4c0-0.4,0.3-0.7,0.7-0.7
		c2.9,0,4.4,1.5,4.4,4.4v9.1C27.1,27.4,25.5,29,22.7,29z M14.7,12.5c-1.5,0.1-2.4,0.8-2.4,3v9.1c0,2.1,1,3,3,3h7.4c2.1,0,3-1,3-3
		v-9.1c0-2.2-0.9-2.9-2.4-3c-0.3,1.2-1.4,2.1-2.7,2.1h-3.3c-0.7,0-1.5-0.3-2-0.8C15,13.4,14.8,13,14.7,12.5z"/>
	<path class="st1" d="M20.7,14.6h-3.3c-1.5,0-2.8-1.2-2.8-2.8S15.9,9,17.4,9h3.3c1.5,0,2.8,1.2,2.8,2.8S22.2,14.6,20.7,14.6z
		 M17.4,10.4c-0.8,0-1.4,0.6-1.4,1.4s0.6,1.4,1.4,1.4h3.3c0.8,0,1.4-0.6,1.4-1.4s-0.6-1.4-1.4-1.4H17.4z"/>
	<path class="st1" d="M18.9,19.5h-3.7c-0.4,0-0.7-0.3-0.7-0.7s0.3-0.7,0.7-0.7h3.7c0.4,0,0.7,0.3,0.7,0.7S19.3,19.5,18.9,19.5z"/>
	<path class="st1" d="M22.5,24h-7.4c-0.4,0-0.7-0.3-0.7-0.7s0.3-0.7,0.7-0.7h7.4c0.4,0,0.7,0.3,0.7,0.7S22.9,24,22.5,24z"/>
</g>
</svg>
