<?xml version="1.0" encoding="utf-8"?>
<!-- Generator: Adobe Illustrator 25.2.0, SVG Export Plug-In . SVG Version: 6.00 Build 0)  -->
<svg version="1.1" id="Layer_1" xmlns="http://www.w3.org/2000/svg" xmlns:xlink="http://www.w3.org/1999/xlink" x="0px" y="0px"
	 viewBox="0 0 38 38" style="enable-background:new 0 0 38 38;" xml:space="preserve">
<style type="text/css">
	.st0{opacity:0.1;fill:#00AEB3;enable-background:new    ;}
	.st1{fill:#00AEB3;}
</style>
<circle class="st0" cx="19" cy="19" r="19"/>
<g>
	<path class="st1" d="M20.3,24.5h-2.6c-0.3,0-0.6-0.3-0.6-0.6v-3h-3c-0.3,0-0.6-0.3-0.6-0.6v-2.6c0-0.3,0.3-0.6,0.6-0.6h3v-3
		c0-0.3,0.3-0.6,0.6-0.6h2.6c0.3,0,0.6,0.3,0.6,0.6v3h3c0.3,0,0.6,0.3,0.6,0.6v2.6c0,0.3-0.3,0.6-0.6,0.6h-3v3
		C20.9,24.2,20.6,24.5,20.3,24.5z M18.2,23.4h1.5v-3c0-0.3,0.3-0.6,0.6-0.6h3v-1.5h-3c-0.3,0-0.6-0.3-0.6-0.6v-3h-1.5v3
		c0,0.3-0.3,0.6-0.6,0.6h-3v1.5h3c0.3,0,0.6,0.3,0.6,0.6V23.4z"/>
	<path class="st1" d="M23.7,27.1h-9.5c-1.9,0-3.4-1.5-3.4-3.4v-9.5c0-1.9,1.5-3.4,3.4-3.4h9.5c1.9,0,3.4,1.5,3.4,3.4c0,0,0,0,0,0
		v9.5C27.1,25.6,25.6,27.1,23.7,27.1C23.7,27.1,23.7,27.1,23.7,27.1z M14.3,12C13,12,12,13,12,14.3v9.5c0,1.3,1,2.3,2.3,2.3h9.5
		c1.3,0,2.3-1,2.3-2.3v-9.5c0-1.3-1-2.3-2.3-2.3H14.3z"/>
</g>
</svg>
