<?xml version="1.0" encoding="utf-8"?>
<!-- Generator: Adobe Illustrator 25.2.0, SVG Export Plug-In . SVG Version: 6.00 Build 0)  -->
<svg version="1.1" id="Layer_1" xmlns="http://www.w3.org/2000/svg" xmlns:xlink="http://www.w3.org/1999/xlink" x="0px" y="0px"
	 viewBox="0 0 38 38" style="enable-background:new 0 0 38 38;" xml:space="preserve">
<style type="text/css">
	.st0{opacity:0.1;fill:#F05C5B;enable-background:new    ;}
	.st1{fill:#F05C5B;}
</style>
<circle class="st0" cx="19" cy="19" r="19"/>
<g>
	<path class="st1" d="M14.9,21.8c-0.1,0-0.3,0-0.4-0.1c-0.3-0.2-0.3-0.6-0.1-0.9l2.1-2.7c0.5-0.7,1.5-0.8,2.2-0.3l1.6,1.3
		c0.1,0.1,0.2,0.1,0.3,0l2-2.6c0.2-0.3,0.6-0.3,0.9-0.1c0.3,0.2,0.3,0.6,0.1,0.9l0,0l-2,2.6c-0.5,0.7-1.5,0.8-2.2,0.3l-1.6-1.3
		c-0.1-0.1-0.2-0.1-0.3,0l-2.1,2.7C15.3,21.8,15.1,21.8,14.9,21.8z"/>
	<path class="st1" d="M21.6,28.4h-5.3c-4.8,0-6.8-2-6.8-6.8v-5.3c0-4.8,2-6.8,6.8-6.8h5.3c4.8,0,6.8,2,6.8,6.8v5.3
		C28.4,26.4,26.4,28.4,21.6,28.4z M16.4,10.9c-4,0-5.5,1.4-5.5,5.5v5.3c0,4,1.4,5.5,5.5,5.5h5.3c4,0,5.5-1.4,5.5-5.5v-5.3
		c0-4-1.4-5.5-5.5-5.5H16.4z"/>
</g>
</svg>
