<?xml version="1.0" encoding="utf-8"?>
<!-- Generator: Adobe Illustrator 25.2.0, SVG Export Plug-In . SVG Version: 6.00 Build 0)  -->
<svg version="1.1" id="Layer_1" xmlns="http://www.w3.org/2000/svg" xmlns:xlink="http://www.w3.org/1999/xlink" x="0px" y="0px"
	 viewBox="0 0 38 38" style="enable-background:new 0 0 38 38;" xml:space="preserve">
<style type="text/css">
	.st0{opacity:0.1;fill:#F9A61B;enable-background:new    ;}
	.st1{fill:#F9A61B;}
</style>
<circle class="st0" cx="19" cy="19" r="19"/>
<g>
	<path class="st1" d="M19,17h-4.5c-0.4,0-0.7-0.3-0.7-0.7c0-0.4,0.3-0.7,0.7-0.7H19c0.4,0,0.7,0.3,0.7,0.7C19.7,16.7,19.4,17,19,17z
		"/>
	<path class="st1" d="M14.7,25.2h-0.2c-0.5-0.1-1-0.4-1.2-0.9l-1.1-2.5c-1.8-1.3-2.8-3.3-2.8-5.5c0-3.9,3.3-7,7.5-7
		c2.8-0.1,5.5,1.5,6.8,4.1c0.5,0.9,0.7,1.9,0.7,2.9c0,3.8-3.2,6.8-7.1,7l-1.1,1.4C15.6,25,15.2,25.2,14.7,25.2z M16.7,10.6
		c-3.4,0-6.1,2.5-6.1,5.6c0,1.8,0.9,3.5,2.4,4.5c0.1,0.1,0.2,0.2,0.2,0.3l1.2,2.7c0,0.1,0.1,0.1,0.2,0.1c0.1,0,0.2,0,0.2-0.1
		l1.4-1.6c0.1-0.2,0.3-0.2,0.5-0.2c3.4,0,6.1-2.5,6.1-5.6c0-0.8-0.2-1.6-0.6-2.3C21.2,11.8,19.1,10.5,16.7,10.6L16.7,10.6z"/>
	<path class="st1" d="M23.3,28.8c-0.5,0-0.9-0.2-1.2-0.6l-1.1-1.4c-2.2-0.1-4.2-1.1-5.6-2.7c-0.2-0.2-0.2-0.6,0-0.9l0.8-1
		c0.1-0.2,0.3-0.2,0.5-0.2c3.4,0,6.1-2.5,6.1-5.6c0-0.8-0.2-1.6-0.6-2.3c-0.1-0.2-0.1-0.5,0.1-0.7c0.2-0.2,0.4-0.3,0.7-0.2
		c3.2,0.7,5.6,3.5,5.7,6.8c0,2.2-1.1,4.2-2.8,5.5l-1.1,2.5c-0.2,0.5-0.7,0.8-1.2,0.9L23.3,28.8z M16.8,23.7c1.2,1.2,2.8,1.8,4.5,1.8
		c0.2,0,0.4,0.1,0.5,0.3l1.4,1.6c0,0.1,0.1,0.1,0.2,0.1c0.1,0,0.2-0.1,0.2-0.1l1.2-2.7c0-0.1,0.1-0.2,0.2-0.3c1.5-1,2.4-2.7,2.4-4.5
		c0-2.2-1.3-4.2-3.3-5c0.1,0.5,0.2,1,0.2,1.5c0,3.8-3.2,6.8-7.1,7L16.8,23.7z"/>
</g>
</svg>
