<?xml version="1.0" encoding="utf-8"?>
<!-- Generator: Adobe Illustrator 25.2.0, SVG Export Plug-In . SVG Version: 6.00 Build 0)  -->
<svg version="1.1" id="Layer_1" xmlns="http://www.w3.org/2000/svg" xmlns:xlink="http://www.w3.org/1999/xlink" x="0px" y="0px"
	 viewBox="0 0 38 38" style="enable-background:new 0 0 38 38;" xml:space="preserve">
<style type="text/css">
	.st0{opacity:0.1;fill:#F37446;enable-background:new    ;}
	.st1{fill:#F37446;}
</style>
<circle class="st0" cx="19" cy="19" r="19"/>
<g>
	<path class="st1" d="M24,29.1H14c-0.4,0-0.7-0.3-0.7-0.7c0-0.4,0.3-0.7,0.7-0.7h10c0.4,0,0.7,0.3,0.7,0.7
		C24.7,28.7,24.4,29.1,24,29.1z"/>
	<path class="st1" d="M23.3,25.8h-8.6c-0.7,0-1.3-0.5-1.6-1.1L9.4,14.1c-0.5-1.3-0.1-1.9,0.2-2.2s1-0.4,2.2,0.4l3.6,2.5
		c0.1,0.1,0.2,0.1,0.3,0.1c0.1,0,0.2-0.1,0.2-0.2l1.6-4.3c0.5-1.3,1.2-1.5,1.6-1.5s1.1,0.2,1.6,1.5l1.6,4.3c0,0.1,0.2,0.3,0.3,0.2
		c0.1,0,0.1,0,0.2-0.1l3.3-2.4c1.2-0.9,1.9-0.7,2.3-0.4s0.7,0.9,0.2,2.4l-3.7,10.3C24.6,25.4,24,25.8,23.3,25.8z M10.5,13.1
		c0,0.2,0.1,0.4,0.1,0.6l3.8,10.6c0.1,0.1,0.2,0.2,0.3,0.2h8.6c0.1,0,0.2-0.1,0.3-0.2L27.3,14c0.1-0.2,0.1-0.5,0.2-0.7
		c-0.2,0.1-0.4,0.2-0.6,0.4L23.5,16c-0.4,0.3-1,0.4-1.5,0.3c-0.5-0.2-0.9-0.6-1.1-1l-1.6-4.3c-0.1-0.2-0.1-0.4-0.3-0.5
		c-0.1,0.2-0.2,0.3-0.3,0.5l-1.6,4.3c-0.2,0.5-0.6,0.9-1.1,1.1c-0.5,0.1-1.1,0-1.5-0.3L11,13.4C10.9,13.3,10.7,13.2,10.5,13.1z"/>
	<path class="st1" d="M21.3,22.3h-4.6c-0.4,0-0.7-0.3-0.7-0.7c0-0.4,0.3-0.7,0.7-0.7h4.6c0.4,0,0.7,0.3,0.7,0.7
		C22,22,21.7,22.3,21.3,22.3z"/>
</g>
</svg>
