<?xml version="1.0" encoding="utf-8"?>
<!-- Generator: Adobe Illustrator 25.2.0, SVG Export Plug-In . SVG Version: 6.00 Build 0)  -->
<svg version="1.1" id="Layer_1" xmlns="http://www.w3.org/2000/svg" xmlns:xlink="http://www.w3.org/1999/xlink" x="0px" y="0px"
	 viewBox="0 0 38 38" style="enable-background:new 0 0 38 38;" xml:space="preserve">
<style type="text/css">
	.st0{opacity:0.1;fill:#8A74B3;enable-background:new    ;}
	.st1{fill:#8A74B3;}
</style>
<circle class="st0" cx="19" cy="19" r="19"/>
<g>
	<path class="st1" d="M25.2,26.2c-0.4,0-0.7-0.3-0.7-0.7c0-0.3,0.2-0.5,0.4-0.6l1.7-0.9v-2.1c0-0.4,0.3-0.7,0.7-0.7
		c0.4,0,0.7,0.3,0.7,0.7v2.6c0,0.3-0.1,0.5-0.4,0.6l-2.1,1C25.4,26.2,25.3,26.2,25.2,26.2z"/>
	<path class="st1" d="M13,12.3c0.4,0,0.7,0.3,0.7,0.7c0,0.3-0.1,0.5-0.4,0.6l-1.7,0.8v2.2c0,0.4-0.3,0.7-0.7,0.7
		c-0.4,0-0.7-0.3-0.7-0.7V14c0-0.3,0.1-0.5,0.4-0.6l2.1-1C12.8,12.3,12.9,12.3,13,12.3z"/>
	<path class="st1" d="M12.8,26.2c-0.1,0-0.2,0-0.3-0.1l-2.1-1C10.2,25,10,24.7,10,24.5v-2.6c0-0.4,0.3-0.7,0.7-0.7
		c0.4,0,0.7,0.3,0.7,0.7V24l1.7,0.8c0.3,0.2,0.5,0.6,0.3,0.9C13.3,26,13,26.2,12.8,26.2L12.8,26.2z"/>
	<path class="st1" d="M24.9,12.1c0.1,0,0.2,0,0.3,0.1l2.1,1c0.2,0.1,0.4,0.4,0.4,0.6v2.5c0,0.4-0.3,0.7-0.7,0.7
		c-0.4,0-0.7-0.3-0.7-0.7v-2.1l-1.7-0.8c-0.3-0.2-0.5-0.6-0.3-0.9C24.5,12.2,24.7,12.1,24.9,12.1L24.9,12.1z"/>
	<path class="st1" d="M19,21.5c-0.4,0-0.7-0.3-0.7-0.7v-2.2l-1.7-0.8c-0.3-0.2-0.4-0.6-0.2-1c0.2-0.3,0.5-0.4,0.9-0.3l1.8,0.9
		l1.8-0.9c0.3-0.2,0.8-0.1,1,0.2c0.2,0.3,0.1,0.8-0.2,1c0,0-0.1,0-0.1,0l-1.7,0.8v2.2C19.7,21.2,19.4,21.5,19,21.5z"/>
	<path class="st1" d="M21.1,11.7c-0.1,0-0.2,0-0.3-0.1L19,10.8l-1.8,0.9c-0.3,0.2-0.8,0-0.9-0.3c-0.2-0.3,0-0.8,0.3-0.9l2.1-1
		c0.2-0.1,0.4-0.1,0.6,0l2.1,1c0.3,0.2,0.5,0.6,0.3,0.9C21.7,11.6,21.4,11.7,21.1,11.7L21.1,11.7z"/>
	<path class="st1" d="M21.1,26.3c-0.1,0-0.2,0-0.3,0.1L19,27.2l-1.8-0.9c-0.3-0.2-0.8,0-0.9,0.3c-0.2,0.3,0,0.8,0.3,0.9l2.1,1
		c0.2,0.1,0.4,0.1,0.6,0l2.1-1c0.3-0.2,0.5-0.6,0.3-0.9C21.7,26.4,21.4,26.3,21.1,26.3L21.1,26.3z"/>
	<path class="st1" d="M19,27.8c-0.4,0-0.7-0.3-0.7-0.7v-2.6c0-0.4,0.3-0.7,0.7-0.7c0.4,0,0.7,0.3,0.7,0.7v2.6
		C19.7,27.4,19.4,27.8,19,27.8z"/>
	<path class="st1" d="M14.6,16.1c-0.2,0.3-0.6,0.5-1,0.3c0,0,0,0,0,0l-2.2-1.3c-0.3-0.2-0.5-0.6-0.3-1c0.2-0.3,0.6-0.5,1-0.3
		l2.2,1.3C14.7,15.4,14.8,15.8,14.6,16.1z"/>
	<path class="st1" d="M23.3,16c0.2,0.3,0.6,0.4,1,0.3c0,0,0,0,0,0l2.2-1.3c0.3-0.2,0.4-0.6,0.2-0.9c-0.2-0.3-0.6-0.4-0.9-0.3
		L23.5,15C23.2,15.2,23.1,15.7,23.3,16z"/>
</g>
</svg>
