<svg width="58" height="58" viewBox="0 0 58 58" fill="none" xmlns="http://www.w3.org/2000/svg">
<rect opacity="0.1" width="58" height="58" rx="29" fill="#F37446"/>
<path d="M37.054 31.0667C36.494 31.6134 36.174 32.4 36.254 33.24C36.374 34.68 37.694 35.7334 39.134 35.7334H41.6673V37.32C41.6673 40.08 39.414 42.3334 36.654 42.3334H21.3473C18.5873 42.3334 16.334 40.08 16.334 37.32V28.3467C16.334 25.5867 18.5873 23.3334 21.3473 23.3334H36.654C39.414 23.3334 41.6673 25.5867 41.6673 28.3467V30.2667H38.974C38.2273 30.2667 37.5473 30.56 37.054 31.0667Z" stroke="#F37446" stroke-width="2" stroke-linecap="round" stroke-linejoin="round"/>
<path d="M16.334 29.5467V23.4535C16.334 21.8668 17.3073 20.4534 18.7873 19.8934L29.374 15.8934C31.0273 15.2667 32.8007 16.4935 32.8007 18.2668V23.3334" stroke="#F37446" stroke-width="2" stroke-linecap="round" stroke-linejoin="round"/>
<path d="M43.0771 31.6269V34.3736C43.0771 35.1069 42.4904 35.7069 41.7438 35.7335H39.1304C37.6904 35.7335 36.3704 34.6802 36.2504 33.2402C36.1704 32.4002 36.4904 31.6135 37.0504 31.0669C37.5438 30.5602 38.2238 30.2669 38.9704 30.2669H41.7438C42.4904 30.2936 43.0771 30.8935 43.0771 31.6269Z" stroke="#F37446" stroke-width="2" stroke-linecap="round" stroke-linejoin="round"/>
<path d="M22.334 29H31.6673" stroke="#F37446" stroke-width="2" stroke-linecap="round" stroke-linejoin="round"/>
</svg>
