<svg id="Layer_1" data-name="Layer 1" xmlns="http://www.w3.org/2000/svg" viewBox="0 0 38 38"><defs><style>.cls-1,.cls-2{fill:#8a74b3;}.cls-1{opacity:0.1;isolation:isolate;}</style></defs><circle class="cls-1" cx="19" cy="19" r="19"/><path class="cls-2" d="M25.47,17.79H12.24a3.1,3.1,0,0,1-3.1-3.1V12.32a3.11,3.11,0,0,1,3.1-3.11H25.47a3.11,3.11,0,0,1,3.1,3.11v2.37A3.1,3.1,0,0,1,25.47,17.79ZM12.24,10.57a1.74,1.74,0,0,0-1.74,1.75v2.37a1.74,1.74,0,0,0,1.74,1.75H25.47a1.75,1.75,0,0,0,1.75-1.75V12.32a1.75,1.75,0,0,0-1.75-1.75Z"/><path class="cls-2" d="M25.47,28.64H12.24a3.1,3.1,0,0,1-3.1-3.1V23.16a3.1,3.1,0,0,1,3.1-3.1H25.47a3.1,3.1,0,0,1,3.1,3.1v2.38A3.1,3.1,0,0,1,25.47,28.64ZM12.24,21.42a1.74,1.74,0,0,0-1.74,1.74v2.38a1.75,1.75,0,0,0,1.74,1.75H25.47a1.76,1.76,0,0,0,1.75-1.75V23.16a1.75,1.75,0,0,0-1.75-1.74Z"/><path class="cls-2" d="M13.43,15.08a.67.67,0,0,1-.68-.68V12.6a.68.68,0,0,1,1.36,0v1.8A.68.68,0,0,1,13.43,15.08Z"/><path class="cls-2" d="M17.05,15.08a.67.67,0,0,1-.68-.68V12.6a.68.68,0,1,1,1.35,0v1.8A.67.67,0,0,1,17.05,15.08Z"/><path class="cls-2" d="M13.43,25.93a.67.67,0,0,1-.68-.68V23.44a.68.68,0,0,1,1.36,0v1.81A.68.68,0,0,1,13.43,25.93Z"/><path class="cls-2" d="M17.05,25.93a.67.67,0,0,1-.68-.68V23.44a.68.68,0,0,1,1.35,0v1.81A.67.67,0,0,1,17.05,25.93Z"/><path class="cls-2" d="M24.28,14.18H20.66a.68.68,0,1,1,0-1.36h3.62a.68.68,0,0,1,0,1.36Z"/><path class="cls-2" d="M24.28,25H20.66a.68.68,0,0,1,0-1.36h3.62a.68.68,0,0,1,0,1.36Z"/></svg>