<svg width="21" height="20" viewBox="0 0 21 20" fill="none" xmlns="http://www.w3.org/2000/svg">
<path d="M20.9803 9.40995C20.6403 3.60995 15.3703 -0.860038 9.30029 0.139962C5.12029 0.829962 1.77029 4.21994 1.12029 8.39994C0.740293 10.8199 1.24031 13.1099 2.33031 14.9999L1.4403 18.3099C1.2403 19.0599 1.93028 19.7399 2.67028 19.5299L5.93029 18.63C7.41029 19.5 9.14029 19.9999 10.9903 19.9999C16.6303 19.9999 21.3103 15.03 20.9803 9.40995ZM15.8803 13.7199C15.7903 13.8999 15.6803 14.07 15.5403 14.23C15.2903 14.5 15.0203 14.7 14.7203 14.82C14.4203 14.95 14.0903 15.01 13.7403 15.01C13.2303 15.01 12.6803 14.89 12.1103 14.64C11.5303 14.39 10.9603 14.0599 10.3903 13.6499C9.81031 13.2299 9.2703 12.7599 8.7503 12.2499C8.2303 11.7299 7.77027 11.1799 7.35027 10.6099C6.94027 10.0399 6.61029 9.46994 6.37029 8.89994C6.13029 8.32994 6.01031 7.77996 6.01031 7.25996C6.01031 6.91996 6.0703 6.58996 6.1903 6.28996C6.3103 5.97996 6.50032 5.69996 6.77032 5.44996C7.09032 5.12996 7.4403 4.97996 7.8103 4.97996C7.95029 4.97996 8.09027 5.00995 8.22027 5.06995C8.35027 5.12995 8.47029 5.21995 8.5603 5.34995L9.72027 6.98994C9.81027 7.11994 9.88028 7.22994 9.92028 7.33994C9.97028 7.44994 9.99029 7.54994 9.99029 7.64994C9.99029 7.76994 9.9503 7.88996 9.8803 8.00996C9.8103 8.12996 9.72027 8.24994 9.60027 8.36994L9.22027 8.76994C9.16027 8.82994 9.14031 8.88995 9.14031 8.96995C9.14031 9.00995 9.15027 9.04994 9.16027 9.08994C9.18027 9.12994 9.19031 9.15995 9.20031 9.18995C9.29031 9.35995 9.45028 9.56993 9.67028 9.82993C9.90028 10.0899 10.1403 10.3599 10.4003 10.6199C10.6703 10.8899 10.9303 11.1299 11.2003 11.3599C11.4603 11.5799 11.6803 11.73 11.8503 11.82C11.8803 11.83 11.9103 11.8499 11.9403 11.8599C11.9803 11.8799 12.0203 11.88 12.0703 11.88C12.1603 11.88 12.2203 11.85 12.2803 11.79L12.6603 11.41C12.7903 11.28 12.9103 11.19 13.0203 11.13C13.1403 11.06 13.2503 11.0199 13.3803 11.0199C13.4803 11.0199 13.5803 11.0399 13.6903 11.0899C13.8003 11.1399 13.9203 11.2 14.0403 11.29L15.7003 12.4699C15.8303 12.5599 15.9203 12.67 15.9803 12.79C16.0303 12.92 16.0603 13.0399 16.0603 13.1799C16.0003 13.3499 15.9603 13.5399 15.8803 13.7199Z" fill="#00AEB3"/>
</svg>
