<svg width="50" height="50" viewBox="0 0 50 50" fill="none" xmlns="http://www.w3.org/2000/svg">
<path d="M45 20C43.6739 20 42.4021 19.4732 41.4645 18.5355C40.5268 17.5979 40 16.3261 40 15C40 13.6739 39.4732 12.4021 38.5355 11.4645C37.5979 10.5268 36.3261 10 35 10C33.6739 10 32.4021 9.47322 31.4645 8.53553C30.5268 7.59785 30 6.32608 30 5C30 3.67392 29.4732 2.40215 28.5355 1.46447C27.5979 0.526784 26.3261 0 25 0C23.6739 0 22.4021 0.526784 21.4645 1.46447C20.5268 2.40215 20 3.67392 20 5C20 6.32608 19.4732 7.59785 18.5355 8.53553C17.5979 9.47322 16.3261 10 15 10C13.6739 10 12.4021 10.5268 11.4645 11.4645C10.5268 12.4021 10 13.6739 10 15C10 16.3261 9.47322 17.5979 8.53553 18.5355C7.59785 19.4732 6.32608 20 5 20C3.67392 20 2.40215 20.5268 1.46447 21.4645C0.526784 22.4021 0 23.6739 0 25C0 26.3261 0.526784 27.5979 1.46447 28.5355C2.40215 29.4732 3.67392 30 5 30C6.32608 30 7.59785 30.5268 8.53553 31.4645C9.47322 32.4021 10 33.6739 10 35C10 36.3261 10.5268 37.5979 11.4645 38.5355C12.4021 39.4732 13.6739 40 15 40C16.3261 40 17.5979 40.5268 18.5355 41.4645C19.4732 42.4021 20 43.6739 20 45C20 46.3261 20.5268 47.5979 21.4645 48.5355C22.4021 49.4732 23.6739 50 25 50C26.3261 50 27.5979 49.4732 28.5355 48.5355C29.4732 47.5979 30 46.3261 30 45C30 43.6739 30.5268 42.4021 31.4645 41.4645C32.4021 40.5268 33.6739 40 35 40C36.3261 40 37.5979 39.4732 38.5355 38.5355C39.4732 37.5979 40 36.3261 40 35C40 33.6739 40.5268 32.4021 41.4645 31.4645C42.4021 30.5268 43.6739 30 45 30C46.3261 30 47.5979 29.4732 48.5355 28.5355C49.4732 27.5979 50 26.3261 50 25C50 23.6739 49.4732 22.4021 48.5355 21.4645C47.5979 20.5268 46.3261 20 45 20ZM35 30H33C32.606 29.9999 32.2159 30.0775 31.8519 30.2283C31.4879 30.379 31.1572 30.6 30.8786 30.8786C30.6 31.1572 30.379 31.4879 30.2283 31.8519C30.0775 32.2159 29.9999 32.606 30 33V35C30 36.3261 29.4732 37.5979 28.5355 38.5355C27.5979 39.4732 26.3261 40 25 40C23.6739 40 22.4021 39.4732 21.4645 38.5355C20.5268 37.5979 20 36.3261 20 35V33C20.0001 32.606 19.9225 32.2159 19.7717 31.8519C19.621 31.4879 19.4 31.1572 19.1214 30.8786C18.8428 30.6 18.5121 30.379 18.1481 30.2283C17.7841 30.0775 17.394 29.9999 17 30H15C13.6739 30 12.4021 29.4732 11.4645 28.5355C10.5268 27.5979 10 26.3261 10 25C10 23.6739 10.5268 22.4021 11.4645 21.4645C12.4021 20.5268 13.6739 20 15 20H17C17.394 20.0001 17.7841 19.9225 18.1481 19.7717C18.5121 19.621 18.8428 19.4 19.1214 19.1214C19.4 18.8428 19.621 18.5121 19.7717 18.1481C19.9225 17.7841 20.0001 17.394 20 17V15C20 13.6739 20.5268 12.4021 21.4645 11.4645C22.4021 10.5268 23.6739 10 25 10C26.3261 10 27.5979 10.5268 28.5355 11.4645C29.4732 12.4021 30 13.6739 30 15V17C29.9999 17.394 30.0775 17.7841 30.2283 18.1481C30.379 18.5121 30.6 18.8428 30.8786 19.1214C31.1572 19.4 31.4879 19.621 31.8519 19.7717C32.2159 19.9225 32.606 20.0001 33 20H35C36.3261 20 37.5979 20.5268 38.5355 21.4645C39.4732 22.4021 40 23.6739 40 25C40 26.3261 39.4732 27.5979 38.5355 28.5355C37.5979 29.4732 36.3261 30 35 30Z" fill="white"/>
</svg>
